<?xml version="1.0" standalone="no"?>
<!DOCTYPE svg PUBLIC "-//W3C//DTD SVG 20010904//EN" "http://www.w3.org/TR/2001/REC-SVG-20010904/DTD/svg10.dtd">
<svg version="1.0" xmlns="http://www.w3.org/2000/svg" width="348.000000pt" height="256.000000pt" viewBox="0 0 348.000000 256.000000" preserveAspectRatio="xMidYMid meet">

  <g transform="translate(0.000000,256.000000) scale(0.100000,-0.100000)" fill="white" stroke="none">
    <path d="M748 2390 c-65 -20 -118 -84 -118 -144 0 -20 -5 -26 -20 -26 -35 0
-97 -38 -118 -72 -28 -47 -35 -90 -21 -136 30 -100 140 -150 230 -104 l36 18
79 -73 c43 -41 110 -101 147 -135 37 -34 64 -65 60 -69 -5 -5 -78 -10 -162
-11 -154 -3 -154 -3 -174 -30 -13 -17 -17 -34 -13 -50 14 -52 15 -53 187 -58
l162 -5 18 -76 c34 -144 103 -264 216 -375 35 -35 63 -64 63 -67 0 -2 -80 -78
-179 -170 l-179 -166 -38 20 c-82 43 -187 8 -225 -75 -24 -53 -24 -90 1 -142
22 -45 50 -68 108 -88 31 -11 37 -18 48 -61 39 -154 252 -161 309 -10 18 46
15 100 -8 136 -10 17 -4 26 53 78 36 33 68 60 71 61 4 0 10 -19 13 -43 15 -98
94 -211 184 -264 56 -33 179 -63 257 -63 229 1 400 117 446 306 7 27 13 51 15
53 2 2 33 -22 68 -53 64 -56 64 -57 50 -84 -21 -40 -18 -121 6 -160 38 -62
121 -94 190 -73 51 15 106 77 115 130 6 34 11 41 29 41 29 0 82 36 110 73 16
22 21 43 21 90 0 75 -27 120 -89 148 -54 24 -90 24 -143 -2 l-44 -21 -87 83
c-48 46 -127 122 -176 169 l-88 84 60 56 c133 122 205 251 246 443 l6 27 159
0 160 0 20 26 c26 34 27 68 1 94 -18 18 -33 20 -180 20 -130 0 -160 3 -160 14
0 8 61 70 135 139 l135 125 50 -21 c45 -19 55 -20 98 -9 65 17 118 73 127 136
13 81 -47 169 -125 185 -27 5 -34 12 -37 35 -11 82 -83 146 -165 146 -49 0
-114 -37 -140 -78 -27 -45 -30 -127 -6 -164 l17 -25 -91 -84 c-50 -46 -96 -85
-102 -86 -6 -1 -33 25 -59 58 -88 109 -219 195 -367 240 -104 32 -281 32 -393
1 -154 -44 -287 -130 -376 -245 -24 -31 -47 -57 -50 -57 -4 0 -49 39 -100 88
l-93 87 16 37 c40 93 -7 195 -103 227 -38 12 -54 13 -93 1z m139 -74 c28 -30
33 -43 33 -85 0 -35 -6 -56 -22 -76 l-22 -29 113 -107 c107 -102 112 -108 100
-131 -7 -12 -25 -58 -39 -101 l-27 -78 -144 134 -144 135 -28 -24 c-22 -18
-40 -24 -79 -24 -45 0 -54 4 -89 39 -33 33 -39 45 -39 81 0 60 30 105 84 125
25 10 53 14 66 10 20 -6 21 -4 15 28 -9 45 18 103 59 129 23 14 43 18 80 15
42 -4 55 -10 83 -41z m1871 17 c37 -23 63 -73 60 -115 -3 -37 -3 -38 30 -38
74 0 132 -60 132 -138 0 -34 -6 -49 -33 -78 -28 -30 -42 -37 -83 -41 -41 -4
-55 -1 -86 20 l-36 25 -138 -128 -139 -127 -16 51 c-9 28 -27 73 -40 100 l-24
48 109 103 110 102 -22 35 c-74 120 57 255 176 181z m-791 -126 c160 -55 276
-152 372 -309 l23 -38 -617 0 -616 0 28 52 c43 79 174 206 260 251 118 61 196
78 348 73 106 -3 143 -8 202 -29z m822 -619 c5 -13 5 -31 -1 -40 -8 -17 -68
-18 -1032 -18 -1120 0 -1064 -3 -1038 55 l12 25 1025 0 1026 0 8 -22z m-370
-138 c-54 -241 -222 -433 -442 -507 -75 -25 -95 -27 -237 -27 -148 -1 -159 1
-240 30 -196 70 -331 211 -401 420 -16 47 -29 94 -29 104 0 20 12 20 679 20
l679 0 -9 -40z m-963 -533 c34 -12 62 -26 63 -32 1 -5 -1 -34 -5 -63 -6 -52
-7 -53 -33 -47 -45 11 -126 59 -129 77 -4 19 24 88 35 88 4 0 36 -10 69 -23z
m649 -10 c33 -79 32 -81 -32 -110 -32 -14 -70 -28 -84 -32 -25 -6 -27 -4 -33
37 -4 24 -9 52 -12 64 -5 18 2 24 48 39 29 9 60 21 68 26 24 14 30 11 45 -24z
m312 -230 l92 -87 37 25 c62 42 150 29 187 -28 55 -85 -3 -200 -102 -202 l-39
0 -4 -54 c-4 -47 -10 -59 -41 -88 -29 -26 -45 -33 -77 -33 -53 0 -96 23 -120
63 -26 41 -25 83 1 132 l22 40 -86 80 -85 80 -6 80 c-5 70 -27 168 -52 240 -4
11 36 -21 87 -70 52 -50 135 -130 186 -178z m-1109 188 c-12 -36 -22 -98 -25
-155 l-4 -95 -91 -86 -90 -85 21 -35 c71 -117 -60 -250 -177 -179 -40 25 -66
81 -59 127 6 33 5 33 -35 33 -74 0 -128 53 -128 125 0 117 131 174 217 93 l22
-20 183 170 c100 94 183 170 185 169 1 -1 -8 -29 -19 -62z m402 0 c12 -1 15
-17 15 -71 l0 -69 -40 3 c-22 2 -64 8 -93 13 l-54 11 6 36 c4 21 9 49 12 65
l6 27 66 -6 c37 -4 74 -8 82 -9z m206 -45 c4 -33 6 -63 6 -67 -1 -9 -44 -18
-115 -26 l-48 -5 3 72 3 71 55 6 c30 3 63 6 72 7 14 2 18 -10 24 -58z m-498
-56 c42 -21 78 -38 80 -39 3 -3 -17 -108 -22 -113 -5 -4 -109 50 -140 73 -15
12 -17 22 -11 64 4 28 9 51 12 51 2 0 39 -16 81 -36z m737 -35 l7 -46 -54 -30
c-59 -33 -117 -58 -122 -52 -2 2 -6 32 -10 67 -6 55 -5 62 11 62 10 0 47 13
83 29 36 15 68 25 72 22 3 -3 9 -27 13 -52z m-507 -32 l83 -11 -3 -65 -3 -65
-47 3 c-46 2 -145 25 -155 35 -3 3 -2 32 2 66 6 51 10 60 24 55 9 -4 53 -11
99 -18z m287 1 c2 -7 6 -36 9 -64 l6 -51 -57 -11 c-32 -6 -75 -13 -95 -16
l-38 -5 0 68 0 69 68 9 c96 14 102 14 107 1z m-568 -76 c119 -70 239 -102 382
-102 127 0 241 30 407 106 15 7 8 -70 -12 -140 -42 -147 -146 -231 -320 -256
-242 -35 -442 76 -492 275 -13 50 -24 145 -18 145 3 0 27 -13 53 -28z" />
    <path d="M1340 2013 c-54 -61 -68 -89 -51 -106 10 -9 14 -9 22 5 5 9 29 41 54
71 25 31 45 60 45 66 0 24 -31 8 -70 -36z" />
    <path d="M2113 2024 c-3 -8 4 -25 15 -37 12 -12 30 -44 42 -70 21 -47 36 -58
46 -34 6 18 -11 63 -42 109 -30 42 -52 54 -61 32z" />
    <path d="M1434 1977 c-44 -66 -52 -97 -25 -97 9 0 81 108 81 121 0 22 -37 6
-56 -24z" />
    <path d="M2006 1982 c-8 -13 28 -102 41 -102 23 0 24 20 4 65 -19 43 -34 55
-45 37z" />
    <path d="M1526 1949 c-14 -23 -15 -34 -7 -42 9 -9 17 -6 31 13 22 29 26 60 7
60 -7 0 -21 -14 -31 -31z" />
    <path d="M1385 1431 c-99 -60 -123 -172 -57 -266 55 -78 144 -105 220 -66 93
48 134 141 101 228 -14 38 -67 92 -106 109 -46 20 -122 18 -158 -5z" />
    <path d="M1932 1429 c-115 -57 -132 -218 -32 -302 31 -27 87 -47 128 -47 29 0
90 25 116 48 47 42 70 145 45 209 -36 95 -161 139 -257 92z" />
    <path d="M1702 1074 c-46 -32 -13 -94 50 -94 30 0 68 31 68 54 0 20 -48 56
-74 56 -12 0 -32 -7 -44 -16z" />
  </g>
</svg>